<?xml version="1.0" encoding="UTF-8"?>
<svg width="41px" height="39px" viewBox="0 0 41 39" version="1.1" xmlns="http://www.w3.org/2000/svg" xmlns:xlink="http://www.w3.org/1999/xlink">
    <!-- Generator: Sketch 52.5 (67469) - http://www.bohemiancoding.com/sketch -->
    <title>LinkedIn</title>
    <desc>Created with Sketch.</desc>
    <g id="ParaFigma" stroke="none" stroke-width="1" fill="none" fill-rule="evenodd">
        <g id="Desktop-HD-Copy-6" transform="translate(-662.000000, -5046.000000)" fill="#FFFFFF" fill-rule="nonzero">
            <g id="Footer" transform="translate(214.000000, 4863.000000)">
                <g id="Socialmedia" transform="translate(448.000000, 183.000000)">
                    <g id="linkedin-logo">
                        <path d="M41,23.910869 L41,39 L32.2123724,39 L32.2123724,24.9214481 C32.2123724,21.384801 30.9413369,18.9711778 27.760507,18.9711778 C25.3323468,18.9711778 23.8873469,20.597783 23.2516385,22.1712498 C23.0198132,22.733758 22.9601411,23.5166958 22.9601411,24.3040934 L22.9601411,39 L14.1695585,39 C14.1695585,39 14.2879496,15.155554 14.1695585,12.6850916 L22.9592832,12.6850916 L22.9592832,16.4151245 C22.9414578,16.4430222 22.9182943,16.4731023 22.9015175,16.500146 L22.9592832,16.500146 L22.9592832,16.4151245 C24.127084,14.6246442 26.2126538,12.0668829 30.8808069,12.0668829 C36.6643332,12.066788 41,15.8279449 41,23.910869 Z M4.97423492,0 C1.96698805,0 0,1.96355979 0,4.54570781 C0,7.07158603 1.91008028,9.09473677 4.85755969,9.09473677 L4.91627859,9.09473677 C7.98176775,9.09473677 9.88822576,7.07196559 9.88822576,4.54570781 C9.83046008,1.96355979 7.98176775,0 4.97423492,0 Z M0.522083526,39 L9.30932979,39 L9.30932979,12.6850916 L0.522083526,12.6850916 L0.522083526,39 Z" id="LinkedIn"></path>
                    </g>
                </g>
            </g>
        </g>
    </g>
</svg>