<?xml version="1.0" encoding="UTF-8"?>
<svg width="37px" height="37px" viewBox="0 0 37 37" version="1.1" xmlns="http://www.w3.org/2000/svg" xmlns:xlink="http://www.w3.org/1999/xlink">
    <!-- Generator: Sketch 52.5 (67469) - http://www.bohemiancoding.com/sketch -->
    <title>Shape</title>
    <desc>Created with Sketch.</desc>
    <g id="ParaFigma" stroke="none" stroke-width="1" fill="none" fill-rule="evenodd">
        <g id="Desktop-HD-Copy-6" transform="translate(-329.000000, -2876.000000)" fill="#FFFFFF" fill-rule="nonzero">
            <g id="Main" transform="translate(0.000000, 1206.000000)">
                <g id="GrowApp" transform="translate(0.000000, 1170.000000)">
                    <g id="content">
                        <g id="go-back-arrow" transform="translate(296.000000, 444.000000)">
                            <g id="Saber-más">
                                <path d="M51.5,56 C41.2830863,56 33,64.2830863 33,74.5 C33,84.7193972 41.2830863,93 51.5,93 C61.7193972,93 70,84.7193972 70,74.5 C69.9999224,64.2830863 61.7193196,56 51.5,56 Z M55.3482208,81.41172 C55.7871522,81.877949 55.7871522,82.6358156 55.3482208,83.1019694 C54.9092894,83.5681231 54.1957957,83.5681984 53.7569351,83.1019694 L46.4576289,75.3487119 C46.2370301,75.1143938 46.1290323,74.8083887 46.1290323,74.4999765 C46.1290323,74.1915643 46.2371009,73.8855592 46.4576289,73.6512411 L53.7568643,65.8980589 C54.1957957,65.4318298 54.9092894,65.4318298 55.34815,65.8980589 C55.7870814,66.3642879 55.7870814,67.1221545 55.34815,67.5883082 L48.8411582,74.4999765 L55.3482208,81.41172 Z" id="Shape" transform="translate(51.500000, 74.500000) rotate(-180.000000) translate(-51.500000, -74.500000) "></path>
                            </g>
                        </g>
                    </g>
                </g>
            </g>
        </g>
    </g>
</svg>