<?xml version="1.0" encoding="UTF-8"?>
<svg width="43px" height="34px" viewBox="0 0 43 34" version="1.1" xmlns="http://www.w3.org/2000/svg" xmlns:xlink="http://www.w3.org/1999/xlink">
    <!-- Generator: Sketch 52.5 (67469) - http://www.bohemiancoding.com/sketch -->
    <title>Path</title>
    <desc>Created with Sketch.</desc>
    <g id="ParaFigma" stroke="none" stroke-width="1" fill="none" fill-rule="evenodd">
        <g id="Desktop-HD-Copy-6" transform="translate(-907.000000, -5051.000000)" fill="#FFFFFF">
            <g id="Footer" transform="translate(214.000000, 4863.000000)">
                <g id="Socialmedia" transform="translate(448.000000, 183.000000)">
                    <g id="iconmonstr-medium-1" transform="translate(245.000000, 5.000000)">
                        <path d="M5.09908333,6.93633549 C5.15283333,6.4099092 4.950375,5.8906209 4.55620833,5.53729072 L0.542875,0.71915184 L0.542875,0 L13.0092917,0 L22.644875,21.0481289 L31.115875,7.92475365e-16 L43,0 L43,0.71915184 L39.5671667,3.99727077 C39.2715417,4.22211725 39.124625,4.5915079 39.1855417,4.95732955 L39.1855417,29.0444549 C39.124625,29.4084921 39.2715417,29.7778827 39.5671667,30.0027292 L42.919375,33.2808482 L42.919375,34 L26.0562083,34 L26.0562083,33.2808482 L29.53025,29.9224269 C29.8706667,29.5833727 29.8706667,29.4834409 29.8706667,28.9641526 L29.8706667,9.49530258 L20.215375,33.9214822 L18.9110417,33.9214822 L7.66833333,9.49530258 L7.66833333,25.8662678 C7.57516667,26.5532987 7.8045,27.2474676 8.29004167,27.7435574 L12.8068333,33.2005458 L12.8068333,33.9214822 L0,33.9214822 L0,33.2005458 L4.51679167,27.7435574 C5.00054167,27.2456831 5.21554167,26.5479452 5.09908333,25.8662678 L5.09908333,6.93633549 Z" id="Path"></path>
                    </g>
                </g>
            </g>
        </g>
    </g>
</svg>